# xmcd CD database file
#
# Track frame offsets:
#	150
#	16340
#	29739
#	45486
#	66431
#	83693
#	93162
#	111029
#	135486
#	146876
#	160605
#	179377
#	193149
#	204174
#	222798
#	235055
#
# Disc length: 3372 seconds
#
# Revision: 2
# Processed by: cddbd v1.4b41PL1 Copyright (c) Steve Scherf et al.
# Submitted via: Feurio! 1.50.2ß - http://www.feurio.com
#
DISCID=d70d2a10
DTITLE=Fleetwood Mack - The Original Fleetwood Mack
DYEAR=1900
DGENRE=
TTITLE0=Drifting
TTITLE1=Leaving Town Blues
TTITLE2=Watch Out
TTITLE3=A Fool No More
TTITLE4=Mean Old Fireman
TTITLE5=Can't Afford To Do It
TTITLE6=Fleetwood mack
TTITLE7=Worried Dream
TTITLE8=Love That Woman
TTITLE9=Allow Me One More Show
TTITLE10=First Train Home
TTITLE11=Rambling Pony #2
TTITLE12=Mighty Cold
TTITLE13=Jumping At Shadows
TTITLE14=Somebody's Gonna Get (Their Head Kicked In Tonight)
TTITLE15=Man of Action
EXTD=
EXTT0=
EXTT1=
EXTT2=
EXTT3=
EXTT4=
EXTT5=
EXTT6=
EXTT7=
EXTT8=
EXTT9=
EXTT10=
EXTT11=
EXTT12=
EXTT13=
EXTT14=
EXTT15=
PLAYORDER=
